<svg width="28" height="21" viewBox="0 0 28 21" fill="none" xmlns="http://www.w3.org/2000/svg">
<path d="M6.04167 0.0833321V20.9167H0.875V0.0833321H6.04167ZM8.625 0.0833321H21.5481C22.9715 0.0833321 24.125 1.01875 24.125 2.15625V18.8438C24.125 19.9885 22.9715 20.9167 21.5481 20.9167H8.625V0.0833321ZM25.4167 4.25H28V8.41667H25.4167V4.25ZM25.4167 10.5H28V14.6667H25.4167V10.5ZM16.375 10.5C17.0601 10.5 17.7172 10.2805 18.2017 9.8898C18.6862 9.4991 18.9583 8.9692 18.9583 8.41667C18.9583 7.86413 18.6862 7.33423 18.2017 6.94353C17.7172 6.55283 17.0601 6.33333 16.375 6.33333C15.6899 6.33333 15.0328 6.55283 14.5483 6.94353C14.0638 7.33423 13.7917 7.86413 13.7917 8.41667C13.7917 8.9692 14.0638 9.4991 14.5483 9.8898C15.0328 10.2805 15.6899 10.5 16.375 10.5ZM12.5 14.6667H20.25C20.25 13.8379 19.8417 13.043 19.115 12.457C18.3883 11.8709 17.4027 11.5417 16.375 11.5417C15.3473 11.5417 14.3617 11.8709 13.635 12.457C12.9083 13.043 12.5 13.8379 12.5 14.6667Z" fill="white"/>
</svg>
