<svg width="32" height="27" viewBox="0 0 32 27" fill="none" xmlns="http://www.w3.org/2000/svg">
<path d="M9.33333 2.25V24.75H4V2.25H9.33333ZM12 2.25H25.34C26.8093 2.25 28 3.26025 28 4.48875V22.5113C28 23.7476 26.8093 24.75 25.34 24.75H12V2.25ZM29.3333 6.75H32V11.25H29.3333V6.75ZM29.3333 13.5H32V18H29.3333V13.5ZM20 13.5C20.7072 13.5 21.3855 13.2629 21.8856 12.841C22.3857 12.419 22.6667 11.8467 22.6667 11.25C22.6667 10.6533 22.3857 10.081 21.8856 9.65901C21.3855 9.23705 20.7072 9 20 9C19.2928 9 18.6145 9.23705 18.1144 9.65901C17.6143 10.081 17.3333 10.6533 17.3333 11.25C17.3333 11.8467 17.6143 12.419 18.1144 12.841C18.6145 13.2629 19.2928 13.5 20 13.5ZM16 18H24C24 17.1049 23.5786 16.2464 22.8284 15.6135C22.0783 14.9806 21.0609 14.625 20 14.625C18.9391 14.625 17.9217 14.9806 17.1716 15.6135C16.4214 16.2464 16 17.1049 16 18Z" fill="white"/>
</svg>
