<svg width="32" height="31" viewBox="0 0 32 31" fill="none" xmlns="http://www.w3.org/2000/svg">
<path d="M12 6.45833H9.33335C8.62611 6.45833 7.94783 6.7305 7.44774 7.21497C6.94764 7.69944 6.66669 8.35652 6.66669 9.04166V24.5417C6.66669 25.2268 6.94764 25.8839 7.44774 26.3684C7.94783 26.8528 8.62611 27.125 9.33335 27.125H22.6667C23.3739 27.125 24.0522 26.8528 24.5523 26.3684C25.0524 25.8839 25.3334 25.2268 25.3334 24.5417V9.04166C25.3334 8.35652 25.0524 7.69944 24.5523 7.21497C24.0522 6.7305 23.3739 6.45833 22.6667 6.45833H20" stroke="white" stroke-width="2" stroke-linecap="round" stroke-linejoin="round"/>
<path d="M12 21.9583V15.5M16 21.9583V20.6667M20 21.9583V18.0833M12 6.45833C12 5.77319 12.281 5.11611 12.781 4.63164C13.2811 4.14717 13.9594 3.875 14.6667 3.875H17.3333C18.0406 3.875 18.7189 4.14717 19.219 4.63164C19.719 5.11611 20 5.77319 20 6.45833C20 7.14348 19.719 7.80056 19.219 8.28503C18.7189 8.76949 18.0406 9.04167 17.3333 9.04167H14.6667C13.9594 9.04167 13.2811 8.76949 12.781 8.28503C12.281 7.80056 12 7.14348 12 6.45833Z" stroke="white" stroke-width="2" stroke-linecap="round" stroke-linejoin="round"/>
</svg>
