<svg width="31" height="30" viewBox="0 0 31 30" fill="none" xmlns="http://www.w3.org/2000/svg">
<path d="M3.52625 25L15.5 5L27.4737 25H3.52625ZM5.74791 23.75H25.2521L15.5 7.5L5.74791 23.75ZM15.5 22.0187C15.7256 22.0187 15.9142 21.945 16.0657 21.7975C16.2182 21.6508 16.2944 21.4683 16.2944 21.25C16.2944 21.0317 16.2182 20.8492 16.0657 20.7025C15.9142 20.555 15.7256 20.4813 15.5 20.4813C15.2744 20.4813 15.0858 20.555 14.9342 20.7025C14.7818 20.8492 14.7056 21.0317 14.7056 21.25C14.7056 21.4683 14.7818 21.6508 14.9342 21.7975C15.0858 21.945 15.2744 22.0187 15.5 22.0187ZM14.8542 19.2313H16.1458V12.9813H14.8542V19.2313Z" fill="white"/>
</svg>
