<svg width="25" height="24" viewBox="0 0 25 24" fill="none" xmlns="http://www.w3.org/2000/svg">
<path d="M13.2812 21.75C13.1769 21.75 13.0736 21.73 12.9775 21.6911C12.8813 21.6522 12.7943 21.5952 12.7214 21.5234C12.6486 21.4517 12.5915 21.3667 12.5535 21.2734C12.5154 21.1801 12.4973 21.0805 12.5 20.9803V12.3811C12.5 12.2816 12.4588 12.1863 12.3856 12.1159C12.3123 12.0456 12.213 12.0061 12.1094 12.0061H3.14502C2.9807 12.008 2.8198 11.961 2.68439 11.8716C2.54898 11.7822 2.44568 11.6548 2.38867 11.5069C2.32374 11.3304 2.32987 11.1371 2.40584 10.9647C2.48182 10.7924 2.62217 10.6536 2.79931 10.5755L21.5493 2.31844C21.6942 2.25472 21.8559 2.23505 22.0127 2.26206C22.1695 2.28908 22.314 2.36148 22.4268 2.46957C22.5395 2.57766 22.6152 2.71626 22.6435 2.86679C22.6719 3.01731 22.6516 3.17257 22.5854 3.31172L13.9917 21.3117C13.9295 21.4424 13.8294 21.5533 13.7035 21.631C13.5775 21.7087 13.431 21.75 13.2812 21.75Z" fill="white"/>
</svg>
