<svg width="199" height="185" viewBox="0 0 199 185" fill="none" xmlns="http://www.w3.org/2000/svg">
<path d="M49.75 161.875V154.167C49.75 145.989 53.2443 138.147 59.4643 132.364C65.6842 126.582 74.1203 123.333 82.9167 123.333H116.083C124.88 123.333 133.316 126.582 139.536 132.364C145.756 138.147 149.25 145.989 149.25 154.167V161.875M74.625 77.0833C74.625 83.2165 77.2457 89.0984 81.9107 93.4352C86.5757 97.772 92.9027 100.208 99.5 100.208C106.097 100.208 112.424 97.772 117.089 93.4352C121.754 89.0984 124.375 83.2165 124.375 77.0833C124.375 70.9502 121.754 65.0683 117.089 60.7315C112.424 56.3947 106.097 53.9583 99.5 53.9583C92.9027 53.9583 86.5757 56.3947 81.9107 60.7315C77.2457 65.0683 74.625 70.9502 74.625 77.0833Z" stroke="black" stroke-width="2" stroke-linecap="round" stroke-linejoin="round"/>
<path d="M24.875 38.5417C24.875 34.4529 26.6222 30.5316 29.7321 27.6404C32.8421 24.7493 37.0602 23.125 41.4583 23.125H157.542C161.94 23.125 166.158 24.7493 169.268 27.6404C172.378 30.5316 174.125 34.4529 174.125 38.5417V146.458C174.125 150.547 172.378 154.468 169.268 157.36C166.158 160.251 161.94 161.875 157.542 161.875H41.4583C37.0602 161.875 32.8421 160.251 29.7321 157.36C26.6222 154.468 24.875 150.547 24.875 146.458V38.5417Z" stroke="black" stroke-width="2" stroke-linecap="round" stroke-linejoin="round"/>
</svg>
