<svg width="33" height="33" viewBox="0 0 33 33" fill="none" xmlns="http://www.w3.org/2000/svg">
<path fill-rule="evenodd" clip-rule="evenodd" d="M16.2227 28.8724L17.2143 27.7551C18.3394 26.4665 19.3514 25.244 20.2518 24.0811L20.9951 23.1005C24.0987 18.919 25.6513 15.6001 25.6513 13.1471C25.6513 7.9111 21.4304 3.66667 16.2227 3.66667C11.015 3.66667 6.79413 7.9111 6.79413 13.1471C6.79413 15.6001 8.3467 18.919 11.4503 23.1005L12.1936 24.0811C13.4781 25.727 14.822 27.3241 16.2227 28.8724Z" stroke="white" stroke-linecap="round" stroke-linejoin="round"/>
<path d="M16.5 17.2857C18.6697 17.2857 20.4286 15.5268 20.4286 13.3571C20.4286 11.1875 18.6697 9.42857 16.5 9.42857C14.3303 9.42857 12.5714 11.1875 12.5714 13.3571C12.5714 15.5268 14.3303 17.2857 16.5 17.2857Z" stroke="white" stroke-linecap="round" stroke-linejoin="round"/>
</svg>
